<?xml version="1.0" encoding="UTF-8"?>
<svg width="700pt" height="700pt" version="1.1" viewBox="0 0 700 700" xmlns="http://www.w3.org/2000/svg" xmlns:xlink="http://www.w3.org/1999/xlink">
 <defs>
  <symbol id="w" overflow="visible">
   <path d="m18.266-1.0938c-0.9375 0.49219-1.918 0.85938-2.9375 1.1094-1.0234 0.25-2.0898 0.375-3.2031 0.375-3.3125 0-5.9375-0.92578-7.875-2.7812-1.9297-1.8516-2.8906-4.3633-2.8906-7.5312 0-3.1758 0.96094-5.6875 2.8906-7.5312 1.9375-1.8516 4.5625-2.7812 7.875-2.7812 1.1133 0 2.1797 0.125 3.2031 0.375 1.0195 0.25 2 0.61719 2.9375 1.0938v4.125c-0.94922-0.64453-1.8867-1.1172-2.8125-1.4219-0.91797-0.30078-1.8867-0.45312-2.9062-0.45312-1.8359 0-3.2773 0.58984-4.3281 1.7656-1.043 1.168-1.5625 2.7773-1.5625 4.8281 0 2.0547 0.51953 3.668 1.5625 4.8438 1.0508 1.168 2.4922 1.75 4.3281 1.75 1.0195 0 1.9883-0.14844 2.9062-0.45312 0.92578-0.30078 1.8633-0.77344 2.8125-1.4219z"/>
  </symbol>
  <symbol id="d" overflow="visible">
   <path d="m13.359-10.844c-0.41797-0.19531-0.83594-0.34375-1.25-0.4375-0.40625-0.09375-0.82031-0.14062-1.2344-0.14062-1.2188 0-2.1641 0.39844-2.8281 1.1875-0.65625 0.78125-0.98438 1.9023-0.98438 3.3594v6.875h-4.7656v-14.906h4.7656v2.4375c0.60156-0.96875 1.3008-1.6758 2.0938-2.125 0.80078-0.44531 1.7539-0.67188 2.8594-0.67188 0.16406 0 0.34375 0.007813 0.53125 0.015625 0.1875 0.011719 0.45703 0.042969 0.8125 0.09375z"/>
  </symbol>
  <symbol id="a" overflow="visible">
   <path d="m17.172-7.5v1.3594h-11.141c0.11328 1.125 0.51562 1.9688 1.2031 2.5312 0.69531 0.55469 1.6641 0.82812 2.9062 0.82812 1.0078 0 2.0352-0.14453 3.0781-0.4375 1.0508-0.30078 2.1328-0.75391 3.25-1.3594v3.6719c-1.125 0.42969-2.2578 0.75-3.3906 0.96875-1.125 0.21875-2.25 0.32812-3.375 0.32812-2.6992 0-4.7969-0.6875-6.2969-2.0625-1.4922-1.375-2.2344-3.2969-2.2344-5.7656 0-2.4375 0.73438-4.3477 2.2031-5.7344 1.4688-1.3945 3.4883-2.0938 6.0625-2.0938 2.3438 0 4.2188 0.71094 5.625 2.125 1.4062 1.4062 2.1094 3.2891 2.1094 5.6406zm-4.8906-1.5781c0-0.90625-0.26562-1.6328-0.79688-2.1875-0.53125-0.5625-1.2266-0.84375-2.0781-0.84375-0.91797 0-1.668 0.26172-2.25 0.78125-0.57422 0.52344-0.93359 1.2734-1.0781 2.25z"/>
  </symbol>
  <symbol id="f" overflow="visible">
   <path d="m8.9688-6.7031c-0.99219 0-1.7344 0.16797-2.2344 0.5-0.5 0.33594-0.75 0.82812-0.75 1.4844 0 0.60547 0.19531 1.0781 0.59375 1.4219 0.40625 0.34375 0.96875 0.51562 1.6875 0.51562 0.89453 0 1.6484-0.32031 2.2656-0.96875 0.61328-0.64453 0.92188-1.4453 0.92188-2.4062v-0.54688zm7.2812-1.7969v8.5h-4.7969v-2.2031c-0.64844 0.89844-1.3711 1.5547-2.1719 1.9688-0.79297 0.41406-1.7617 0.625-2.9062 0.625-1.543 0-2.7969-0.44531-3.7656-1.3438-0.96094-0.90625-1.4375-2.0781-1.4375-3.5156 0-1.75 0.59766-3.0312 1.7969-3.8438 1.207-0.82031 3.0977-1.2344 5.6719-1.2344h2.8125v-0.375c0-0.75-0.29688-1.3008-0.89062-1.6562-0.59375-0.35156-1.5234-0.53125-2.7812-0.53125-1.0234 0-1.9766 0.10547-2.8594 0.3125-0.875 0.21094-1.6953 0.51562-2.4531 0.92188v-3.6406c1.0195-0.25 2.0469-0.4375 3.0781-0.5625s2.0625-0.1875 3.0938-0.1875c2.6875 0 4.625 0.53125 5.8125 1.5938 1.1953 1.0547 1.7969 2.7773 1.7969 5.1719z"/>
  </symbol>
  <symbol id="c" overflow="visible">
   <path d="m7.5-19.141v4.2344h4.9062v3.4062h-4.9062v6.3281c0 0.6875 0.13281 1.1562 0.40625 1.4062 0.28125 0.24219 0.82812 0.35938 1.6406 0.35938h2.4531v3.4062h-4.0938c-1.8867 0-3.2188-0.39062-4-1.1719-0.78125-0.78906-1.1719-2.125-1.1719-4v-6.3281h-2.375v-3.4062h2.375v-4.2344z"/>
  </symbol>
  <symbol id="k" overflow="visible">
   <path d="m12.438-12.734v-7.9844h4.7969v20.719h-4.7969v-2.1562c-0.65625 0.875-1.3828 1.5234-2.1719 1.9375-0.79297 0.40625-1.7109 0.60938-2.75 0.60938-1.8359 0-3.3438-0.72656-4.5312-2.1875-1.1797-1.4688-1.7656-3.3477-1.7656-5.6406 0-2.3008 0.58594-4.1797 1.7656-5.6406 1.1875-1.457 2.6953-2.1875 4.5312-2.1875 1.0312 0 1.9414 0.21094 2.7344 0.625 0.80078 0.40625 1.5312 1.043 2.1875 1.9062zm-3.1406 9.6562c1.0195 0 1.7969-0.36719 2.3281-1.1094 0.53906-0.75 0.8125-1.832 0.8125-3.25 0-1.4258-0.27344-2.5078-0.8125-3.25-0.53125-0.75-1.3086-1.125-2.3281-1.125-1.0117 0-1.7891 0.375-2.3281 1.125-0.54297 0.74219-0.8125 1.8242-0.8125 3.25 0 1.418 0.26953 2.5 0.8125 3.25 0.53906 0.74219 1.3164 1.1094 2.3281 1.1094z"/>
  </symbol>
  <symbol id="j" overflow="visible">
   <path d="m10.219-3.0781c1.0195 0 1.7969-0.36719 2.3281-1.1094 0.53906-0.75 0.8125-1.832 0.8125-3.25 0-1.4258-0.27344-2.5078-0.8125-3.25-0.53125-0.75-1.3086-1.125-2.3281-1.125-1.0234 0-1.8047 0.375-2.3438 1.125-0.54297 0.75-0.8125 1.8359-0.8125 3.25 0 1.4062 0.26953 2.4844 0.8125 3.2344 0.53906 0.75 1.3203 1.125 2.3438 1.125zm-3.1562-9.6562c0.65625-0.86328 1.3789-1.5 2.1719-1.9062 0.80078-0.41406 1.7227-0.625 2.7656-0.625 1.832 0 3.3359 0.73047 4.5156 2.1875 1.1875 1.4609 1.7812 3.3398 1.7812 5.6406 0 2.293-0.59375 4.1719-1.7812 5.6406-1.1797 1.4609-2.6836 2.1875-4.5156 2.1875-1.043 0-1.9648-0.21094-2.7656-0.625-0.79297-0.41406-1.5156-1.0547-2.1719-1.9219v2.1562h-4.7656v-20.719h4.7656z"/>
  </symbol>
  <symbol id="i" overflow="visible">
   <path d="m0.32812-14.906h4.7656l4.0156 10.109 3.4062-10.109h4.7656l-6.2656 16.312c-0.63672 1.6641-1.375 2.8281-2.2188 3.4844-0.83594 0.66406-1.9375 1-3.3125 1h-2.75v-3.1406h1.4844c0.8125 0 1.3984-0.13281 1.7656-0.39062 0.36328-0.25 0.64844-0.71094 0.85938-1.375l0.125-0.40625z"/>
  </symbol>
  <symbol id="h" overflow="visible">
   <path d="m2.5-19.875h5.125v17.938c0 2.4766-0.67188 4.3281-2.0156 5.5469-1.3438 1.2266-3.3828 1.8438-6.1094 1.8438h-1.0312v-3.875h0.79688c1.0625 0 1.8633-0.29688 2.4062-0.89062 0.55078-0.59375 0.82812-1.4688 0.82812-2.625z"/>
  </symbol>
  <symbol id="g" overflow="visible">
   <path d="m13.938-14.438v3.6094c-1.0234-0.42578-2.0078-0.74219-2.9531-0.95312-0.94922-0.21875-1.8438-0.32812-2.6875-0.32812-0.90625 0-1.5781 0.11719-2.0156 0.34375-0.4375 0.23047-0.65625 0.57812-0.65625 1.0469 0 0.38672 0.16016 0.68359 0.48438 0.89062 0.33203 0.19922 0.92969 0.34375 1.7969 0.4375l0.84375 0.125c2.4375 0.3125 4.0781 0.82422 4.9219 1.5312 0.84375 0.71094 1.2656 1.8242 1.2656 3.3438 0 1.5859-0.58984 2.7773-1.7656 3.5781-1.168 0.80469-2.9141 1.2031-5.2344 1.2031-0.99219 0-2.0117-0.078125-3.0625-0.23438-1.0547-0.15625-2.1328-0.39062-3.2344-0.70312v-3.625c0.94531 0.46875 1.9219 0.82031 2.9219 1.0469 1 0.23047 2.0156 0.34375 3.0469 0.34375 0.92578 0 1.625-0.125 2.0938-0.375 0.46875-0.25781 0.70312-0.64453 0.70312-1.1562 0-0.42578-0.16406-0.74219-0.48438-0.95312-0.32422-0.20703-0.96875-0.36719-1.9375-0.48438l-0.82812-0.10938c-2.125-0.25781-3.6172-0.75-4.4688-1.4688-0.85547-0.71875-1.2812-1.8125-1.2812-3.2812 0-1.582 0.53906-2.7539 1.625-3.5156 1.082-0.75781 2.7422-1.1406 4.9844-1.1406 0.875 0 1.7969 0.070313 2.7656 0.20312 0.96875 0.125 2.0195 0.33594 3.1562 0.625z"/>
  </symbol>
  <symbol id="v" overflow="visible">
   <path d="m2.2969-14.906h4.7656v14.906h-4.7656zm0-5.8125h4.7656v3.8906h-4.7656z"/>
  </symbol>
  <symbol id="e" overflow="visible">
   <path d="m14.344-14.438v3.875c-0.65625-0.4375-1.3125-0.75781-1.9688-0.96875-0.64844-0.21875-1.3203-0.32812-2.0156-0.32812-1.3359 0-2.3711 0.39062-3.1094 1.1719-0.74219 0.77344-1.1094 1.8555-1.1094 3.25 0 1.3867 0.36719 2.4688 1.1094 3.25 0.73828 0.78125 1.7734 1.1719 3.1094 1.1719 0.73828 0 1.4414-0.10938 2.1094-0.32812 0.67578-0.22656 1.3008-0.5625 1.875-1v3.9062c-0.75 0.27344-1.5117 0.47266-2.2812 0.60938-0.76172 0.14453-1.5273 0.21875-2.2969 0.21875-2.6992 0-4.8086-0.6875-6.3281-2.0625-1.5117-1.3828-2.2656-3.3047-2.2656-5.7656 0-2.457 0.75391-4.375 2.2656-5.75 1.5195-1.3828 3.6289-2.0781 6.3281-2.0781 0.78125 0 1.5469 0.070313 2.2969 0.20312 0.75781 0.13672 1.5195 0.34375 2.2812 0.625z"/>
  </symbol>
  <symbol id="u" overflow="visible">
   <path d="m2.5-19.875h5.125v16h9v3.875h-14.125z"/>
  </symbol>
  <symbol id="b" overflow="visible">
   <path d="m9.3906-11.859c-1.0625 0-1.8711 0.38281-2.4219 1.1406-0.55469 0.76172-0.82812 1.8555-0.82812 3.2812 0 1.4297 0.27344 2.5234 0.82812 3.2812 0.55078 0.76172 1.3594 1.1406 2.4219 1.1406 1.0312 0 1.8203-0.37891 2.375-1.1406 0.55078-0.75781 0.82812-1.8516 0.82812-3.2812 0-1.4258-0.27734-2.5195-0.82812-3.2812-0.55469-0.75781-1.3438-1.1406-2.375-1.1406zm0-3.4062c2.5625 0 4.5625 0.69531 6 2.0781 1.4453 1.3867 2.1719 3.3047 2.1719 5.75 0 2.4492-0.72656 4.3672-2.1719 5.75-1.4375 1.3867-3.4375 2.0781-6 2.0781-2.5742 0-4.5898-0.69141-6.0469-2.0781-1.4492-1.3828-2.1719-3.3008-2.1719-5.75 0-2.4453 0.72266-4.3633 2.1719-5.75 1.457-1.3828 3.4727-2.0781 6.0469-2.0781z"/>
  </symbol>
  <symbol id="t" overflow="visible">
   <path d="m2.2969-20.719h4.7656v11.281l5.4844-5.4688h5.5312l-7.2812 6.8438 7.8594 8.0625h-5.7812l-5.8125-6.2188v6.2188h-4.7656z"/>
  </symbol>
  <symbol id="s" overflow="visible">
   <path d="m12.109-20.719v3.125h-2.6406c-0.67969 0-1.1523 0.125-1.4219 0.375-0.26172 0.24219-0.39062 0.66406-0.39062 1.2656v1.0469h4.0781v3.4062h-4.0781v11.5h-4.7656v-11.5h-2.375v-3.4062h2.375v-1.0469c0-1.625 0.45312-2.8203 1.3594-3.5938 0.90625-0.78125 2.3047-1.1719 4.2031-1.1719z"/>
  </symbol>
  <symbol id="r" overflow="visible">
   <path d="m16.109-12.438c0.60156-0.91406 1.3164-1.6133 2.1406-2.0938 0.83203-0.48828 1.75-0.73438 2.75-0.73438 1.707 0 3.0078 0.52734 3.9062 1.5781 0.89453 1.0547 1.3438 2.5898 1.3438 4.6094v9.0781h-4.7812v-7.7812-0.35938c0.007812-0.125 0.015625-0.30078 0.015625-0.53125 0-1.0508-0.15625-1.8125-0.46875-2.2812-0.30469-0.47656-0.80469-0.71875-1.5-0.71875-0.90625 0-1.6055 0.375-2.0938 1.125-0.49219 0.74219-0.74609 1.8125-0.76562 3.2188v7.3281h-4.7969v-7.7812c0-1.6445-0.14062-2.7031-0.42188-3.1719-0.28125-0.47656-0.78906-0.71875-1.5156-0.71875-0.91797 0-1.625 0.375-2.125 1.125-0.49219 0.75-0.73438 1.8242-0.73438 3.2188v7.3281h-4.7969v-14.906h4.7969v2.1719c0.58203-0.84375 1.2539-1.4727 2.0156-1.8906 0.75781-0.42578 1.5938-0.64062 2.5-0.64062 1.0312 0 1.9414 0.25 2.7344 0.75 0.78906 0.49219 1.3906 1.1836 1.7969 2.0781z"/>
  </symbol>
  <symbol id="q" overflow="visible">
   <path d="m17.281-9.0781v9.0781h-4.7969v-6.9219c0-1.3008-0.03125-2.1953-0.09375-2.6875-0.054687-0.48828-0.14844-0.84766-0.28125-1.0781-0.1875-0.3125-0.44531-0.55078-0.76562-0.71875-0.32422-0.17578-0.6875-0.26562-1.0938-0.26562-0.99219 0-1.7734 0.38672-2.3438 1.1562-0.5625 0.76172-0.84375 1.8242-0.84375 3.1875v7.3281h-4.7656v-20.719h4.7656v7.9844c0.71875-0.86328 1.4766-1.5 2.2812-1.9062 0.8125-0.41406 1.7031-0.625 2.6719-0.625 1.7266 0 3.0352 0.52734 3.9219 1.5781 0.89453 1.0547 1.3438 2.5898 1.3438 4.6094z"/>
  </symbol>
  <symbol id="p" overflow="visible">
   <path d="m2.5-19.875h5.7344l7.2188 13.625v-13.625h4.8594v19.875h-5.7188l-7.2344-13.641v13.641h-4.8594z"/>
  </symbol>
  <symbol id="o" overflow="visible">
   <path d="m2.125-5.7969v-9.1094h4.7969v1.4844c0 0.8125-0.007813 1.8281-0.015625 3.0469-0.011719 1.2188-0.015625 2.0312-0.015625 2.4375 0 1.1992 0.03125 2.0625 0.09375 2.5938s0.17188 0.91797 0.32812 1.1562c0.19531 0.30469 0.45312 0.54297 0.76562 0.71875 0.3125 0.16797 0.67188 0.25 1.0781 0.25 1 0 1.7812-0.37891 2.3438-1.1406 0.57031-0.76953 0.85938-1.832 0.85938-3.1875v-7.3594h4.7656v14.906h-4.7656v-2.1562c-0.71875 0.86719-1.4844 1.5078-2.2969 1.9219-0.80469 0.41406-1.6836 0.625-2.6406 0.625-1.7305 0-3.0469-0.52344-3.9531-1.5781-0.89844-1.0625-1.3438-2.5977-1.3438-4.6094z"/>
  </symbol>
  <symbol id="n" overflow="visible">
   <path d="m17.281-9.0781v9.0781h-4.7969v-6.9531c0-1.2812-0.03125-2.1641-0.09375-2.6562-0.054687-0.48828-0.14844-0.84766-0.28125-1.0781-0.1875-0.3125-0.44531-0.55078-0.76562-0.71875-0.32422-0.17578-0.6875-0.26562-1.0938-0.26562-0.99219 0-1.7734 0.38672-2.3438 1.1562-0.5625 0.76172-0.84375 1.8242-0.84375 3.1875v7.3281h-4.7656v-14.906h4.7656v2.1719c0.71875-0.86328 1.4766-1.5 2.2812-1.9062 0.8125-0.41406 1.7031-0.625 2.6719-0.625 1.7266 0 3.0352 0.52734 3.9219 1.5781 0.89453 1.0547 1.3438 2.5898 1.3438 4.6094z"/>
  </symbol>
  <symbol id="m" overflow="visible">
   <path d="m2.5-19.875h8.5156c2.5195 0 4.457 0.5625 5.8125 1.6875 1.3516 1.1172 2.0312 2.7148 2.0312 4.7969 0 2.0859-0.67969 3.6875-2.0312 4.8125-1.3555 1.125-3.293 1.6875-5.8125 1.6875h-3.3906v6.8906h-5.125zm5.125 3.7188v5.5469h2.8438c0.98828 0 1.7539-0.23828 2.2969-0.71875 0.53906-0.48828 0.8125-1.1758 0.8125-2.0625 0-0.88281-0.27344-1.5664-0.8125-2.0469-0.54297-0.47656-1.3086-0.71875-2.2969-0.71875z"/>
  </symbol>
  <symbol id="l" overflow="visible">
   <path d="m2.2969-14.906h4.7656v14.641c0 2-0.48047 3.5234-1.4375 4.5781-0.96094 1.0508-2.3516 1.5781-4.1719 1.5781h-2.3594v-3.1406h0.82812c0.90625 0 1.5234-0.20312 1.8594-0.60938 0.34375-0.40625 0.51562-1.2109 0.51562-2.4062zm0-5.8125h4.7656v3.8906h-4.7656z"/>
  </symbol>
 </defs>
 <g>
  <path d="m538.39 259.55h-20.176l3.2734-31.082c0.54687-3.2734-0.54688-6-2.7266-8.1797-2.1797-2.1797-4.9062-3.8164-8.1797-3.8164l-250.29 0.003906c-3.2734 0-6 1.0898-8.1797 3.8164-2.1797 2.1797-3.2734 5.4531-2.7266 8.1797l23.445 220.29c2.7266 29.992 27.266 52.348 57.254 52.348h110.69c29.992 0 54.527-22.355 57.254-51.801l5.4531-52.891h34.352c28.898 0 52.348-23.445 52.348-52.348v-31.625c0.54688-29.449-22.898-52.898-51.797-52.898zm-62.164 187.58c-1.6328 18.539-16.902 32.715-35.441 32.715h-110.69c-18.539 0-33.809-14.176-35.441-32.715l-22.355-208.84h225.75zm87.246-103.06c0 14.176-11.449 25.082-25.082 25.082h-31.625l8.7227-82.336h22.902c14.176 0 25.082 11.449 25.082 25.082z"/>
  <path d="m373.18 59.98-16.902 14.723c4.9062 5.4531 14.723 20.719 12.543 29.992-0.54688 2.1797-1.6367 5.4531-8.1797 8.7227-13.633 7.0898-18.539 16.902-20.176 24.539-4.9062 22.355 13.086 45.805 15.27 47.984l17.449-14.176c-3.8164-4.3633-13.086-19.629-10.906-29.445 0.54687-2.7266 2.1797-6 8.7227-9.2695 13.633-7.0898 18.539-16.902 19.629-24.539 4.3594-21.812-15.27-45.805-17.449-48.531z"/>
  <path d="m424.43 59.98-16.902 14.723c4.9062 5.4531 14.723 20.719 12.543 29.992-0.54687 2.1797-1.6367 5.4531-8.1797 8.7227-13.633 7.0898-18.539 16.902-20.176 24.539-4.9062 22.355 13.086 45.805 15.27 47.984l17.449-14.176c-3.8164-4.3633-13.086-19.629-10.906-29.445 0.54688-2.7266 2.1797-6 8.7227-9.2695 13.633-7.0898 18.539-16.902 19.629-24.539 4.9062-21.812-15.266-45.805-17.449-48.531z"/>
  <path d="m270.12 143.41c-11.996-43.621-56.164-69.25-99.785-57.797-43.625 11.449-69.797 56.164-58.344 99.785 11.449 43.621 56.164 69.797 99.785 58.344 3.8164-1.0898 7.0898-2.1797 10.906-3.8164-6-3.2734-10.906-9.2695-13.086-16.359-3.8164-14.176 4.9062-28.898 19.086-32.715 4.9062-1.0898 9.8164-1.0898 14.176 0-2.7266-13.633 5.4531-27.266 19.086-31.082 3.2734-1.0898 7.0898-1.0898 10.359-0.54688-0.003906-5.4492-1.0938-10.359-2.1836-15.812zm-122.14 17.449c-4.9062 1.0898-9.8164-1.6367-11.449-6.543-1.0898-4.9062 1.6367-9.8164 6.543-11.449 4.9062-1.6367 9.8164 1.6367 11.449 6.543 1.0898 4.9062-1.6367 9.8164-6.543 11.449zm23.445 48.531c-6.543 1.6367-13.086-2.1797-14.723-8.7227-1.6367-6.543 2.1797-13.086 8.7227-14.723 6.543-1.6367 13.086 2.1797 14.723 8.7227 1.6367 6-2.1797 13.086-8.7227 14.723zm33.262-65.98c-7.6328 2.1797-15.27-2.7266-17.449-10.359s2.7266-15.27 10.359-17.449c7.6328-2.1797 15.27 2.7266 17.449 10.359 2.1836 7.0898-2.7266 15.27-10.359 17.449z"/>
  <use x="61.277344" y="641.792969" xlink:href="#w"/>
  <use x="81.285156" y="641.792969" xlink:href="#d"/>
  <use x="94.730469" y="641.792969" xlink:href="#a"/>
  <use x="113.21875" y="641.792969" xlink:href="#f"/>
  <use x="131.617188" y="641.792969" xlink:href="#c"/>
  <use x="144.652344" y="641.792969" xlink:href="#a"/>
  <use x="163.140625" y="641.792969" xlink:href="#k"/>
  <use x="192.148438" y="641.792969" xlink:href="#j"/>
  <use x="211.667969" y="641.792969" xlink:href="#i"/>
  <use x="238.929688" y="641.792969" xlink:href="#h"/>
  <use x="249.074219" y="641.792969" xlink:href="#a"/>
  <use x="267.566406" y="641.792969" xlink:href="#g"/>
  <use x="283.792969" y="641.792969" xlink:href="#g"/>
  <use x="300.019531" y="641.792969" xlink:href="#v"/>
  <use x="309.367188" y="641.792969" xlink:href="#e"/>
  <use x="325.527344" y="641.792969" xlink:href="#f"/>
  <use x="353.417969" y="641.792969" xlink:href="#u"/>
  <use x="370.789062" y="641.792969" xlink:href="#b"/>
  <use x="389.519531" y="641.792969" xlink:href="#e"/>
  <use x="405.683594" y="641.792969" xlink:href="#t"/>
  <use x="61.277344" y="669.054688" xlink:href="#s"/>
  <use x="73.136719" y="669.054688" xlink:href="#d"/>
  <use x="86.582031" y="669.054688" xlink:href="#b"/>
  <use x="105.3125" y="669.054688" xlink:href="#r"/>
  <use x="143.214844" y="669.054688" xlink:href="#c"/>
  <use x="156.246094" y="669.054688" xlink:href="#q"/>
  <use x="175.65625" y="669.054688" xlink:href="#a"/>
  <use x="203.640625" y="669.054688" xlink:href="#p"/>
  <use x="226.457031" y="669.054688" xlink:href="#b"/>
  <use x="245.1875" y="669.054688" xlink:href="#o"/>
  <use x="264.597656" y="669.054688" xlink:href="#n"/>
  <use x="293.496094" y="669.054688" xlink:href="#m"/>
  <use x="313.480469" y="669.054688" xlink:href="#d"/>
  <use x="326.925781" y="669.054688" xlink:href="#b"/>
  <use x="345.65625" y="669.054688" xlink:href="#l"/>
  <use x="355" y="669.054688" xlink:href="#a"/>
  <use x="373.492188" y="669.054688" xlink:href="#e"/>
  <use x="389.652344" y="669.054688" xlink:href="#c"/>
 </g>
</svg>
